PathFileType	4	(X/Y/Z)	SUBJ89_3_walk_RCNL2025.trc
DataRate	CameraRate	NumFrames	NumMarkers	Units	OrigDataRate	OrigDataStartFrame	OrigNumFrames
100	100	11	25	mm	100	114	227
Frame#	Time	R_Shoulder			L_Shoulder			C7			J_Notch			R_Elbow			L_Elbow			R_Wrist			L_Wrist			R_Asis			L_Asis			Sacral			Thoracic			Sternum			R_Thigh_Lateral			R_Knee_Lateral			R_Shank_Lateral			R_Ankle_Lateral			R_Heel			R_Toe			L_Thigh_Lateral			L_Knee_Lateral			L_Shank_Lateral			L_Ankle_Lateral			L_Heel			L_Toe		
		X1	Y1	Z1	X2	Y2	Z2	X3	Y3	Z3	X4	Y4	Z4	X5	Y5	Z5	X6	Y6	Z6	X7	Y7	Z7	X8	Y8	Z8	X9	Y9	Z9	X10	Y10	Z10	X11	Y11	Z11	X12	Y12	Z12	X13	Y13	Z13	X14	Y14	Z14	X15	Y15	Z15	X16	Y16	Z16	X17	Y17	Z17	X18	Y18	Z18	X19	Y19	Z19	X20	Y20	Z20	X21	Y21	Z21	X22	Y22	Z22	X23	Y23	Z23	X24	Y24	Z24	X25	Y25	Z25
114	1.13000000	569.898010	1404.073120	-9.892142	522.057739	1440.610718	-417.655945	487.456451	1515.208252	-200.948471	599.892883	1386.105835	-219.533890	461.854797	1083.527466	27.714760	503.246765	1099.121948	-472.106323	531.114685	821.550171	28.339824	669.582062	887.669098	-454.181076	584.729919	997.316895	-112.512222	572.698059	986.376282	-350.354736	413.082672	1052.427368	-213.373688	396.474976	1337.182129	-205.409775	627.625854	1238.243408	-241.681900	566.486694	612.287231	-51.130936	573.440613	497.090363	-112.013565	547.850098	272.238098	-72.327980	521.211243	68.406876	-151.959702	482.980743	60.272343	-196.589996	681.390930	33.439213	-173.189621	558.313721	561.896179	-446.463013	565.719543	481.341400	-377.256897	371.188873	351.818970	-393.515747	238.185501	211.589905	-312.803802	230.614914	236.347702	-256.550079	308.893127	77.784874	-333.775452
115	1.14000000	585.745178	1405.907959	-9.549855	534.999573	1442.468994	-417.126465	501.897827	1516.733398	-200.035202	614.295166	1387.759766	-219.390305	480.525482	1084.517456	29.016445	512.295410	1101.163208	-471.702637	553.580170	823.565552	27.559026	676.082764	887.624420	-455.735092	598.520142	998.077576	-111.819748	586.331177	988.583679	-349.616821	427.096222	1054.207764	-212.350006	410.972565	1338.706787	-203.741425	641.696106	1239.823853	-241.621735	573.179810	612.530884	-50.745438	576.988403	496.962006	-111.623825	549.174805	272.299072	-71.944778	521.325500	68.672760	-151.867859	483.080566	60.668667	-196.485901	681.336121	33.406845	-173.162827	581.938660	565.596680	-446.548553	592.364014	485.374390	-377.435150	401.945862	350.677917	-393.799927	272.573029	206.853989	-312.919159	263.575958	231.406433	-256.889038	349.145782	76.560715	-333.078888
116	1.15000000	601.528870	1407.521240	-9.251801	548.029724	1444.046875	-416.612823	516.294189	1517.974243	-199.187424	628.666992	1389.135620	-219.250092	499.184814	1085.308105	30.346458	521.232056	1102.997681	-471.370148	576.235687	825.517151	26.662563	682.279236	887.282410	-457.383881	612.187500	998.593506	-111.089157	600.012756	990.555054	-348.812897	441.038391	1055.694824	-211.407043	425.427063	1339.962524	-202.155853	655.736023	1241.129883	-241.508759	579.987732	612.691223	-50.404827	580.677856	496.820679	-111.256279	550.580322	272.379364	-71.586479	521.489380	68.979080	-151.789185	483.222443	61.103996	-196.407532	681.300598	33.347008	-173.138870	605.568604	569.268127	-446.481049	618.594788	489.352753	-377.398285	433.106689	348.561523	-394.269958	307.913055	200.758789	-313.345703	297.253265	225.189621	-257.632568	390.625214	74.343338	-331.861908
117	1.16000000	617.255981	1408.876465	-9.001044	561.172119	1445.310547	-416.116974	530.653320	1518.914917	-198.406357	643.008301	1390.204956	-219.107880	517.818726	1085.869751	31.697155	530.095032	1104.591309	-471.098694	599.055298	827.385223	25.649603	688.220184	886.620911	-459.129364	625.734619	998.863586	-110.318069	613.760559	992.248779	-347.952942	454.910614	1056.865112	-210.562973	439.835114	1340.937988	-200.667145	669.742310	1242.128906	-241.337540	586.960876	612.751892	-50.107204	584.577881	496.652435	-110.908775	552.119263	272.465759	-71.253632	521.706421	69.325310	-151.730759	483.412140	61.581085	-196.361862	681.287109	33.262196	-173.118011	629.168457	572.862610	-446.257690	644.363647	493.197754	-377.147003	464.632385	345.533051	-394.880859	344.182007	193.458069	-314.029938	331.679535	217.780701	-258.692963	433.184021	71.319534	-330.317383
118	1.17000000	632.927795	1409.942017	-8.801243	574.438538	1446.229980	-415.645081	544.982727	1519.545532	-197.695038	657.317932	1390.945068	-218.961349	536.417114	1086.176392	33.060760	538.926941	1105.912598	-470.878326	622.014160	829.150513	24.522786	693.958466	885.622009	-460.976166	639.167480	998.888306	-109.506744	627.585449	993.625183	-347.052734	468.716888	1057.703857	-209.832809	454.193146	1341.627441	-199.286789	683.711975	1242.794067	-241.106262	594.146240	612.699829	-49.851280	588.743958	496.442505	-110.581924	553.839111	272.545166	-70.950401	521.979553	69.708427	-151.701691	483.653381	62.102528	-196.358963	681.297485	33.154602	-173.101639	652.690979	576.337402	-445.876343	669.620056	496.840118	-376.688995	496.468231	341.690369	-395.576172	381.363190	185.127975	-314.912720	366.896423	209.282532	-259.976562	476.700531	67.706619	-328.648895
119	1.18000000	648.539978	1410.692871	-8.655668	587.829834	1446.781616	-415.205872	559.289734	1519.861938	-197.057800	671.595032	1391.339233	-218.811035	554.974487	1086.207031	34.428772	547.773621	1106.934937	-470.699463	645.088623	830.795532	23.288223	699.546875	884.273041	-462.929108	652.496826	998.669678	-108.657082	641.492554	994.649109	-346.130371	482.464386	1058.203857	-209.227158	468.498474	1342.029663	-198.024185	697.643311	1243.105469	-240.817001	601.581726	612.523254	-49.637623	593.216675	496.175964	-110.280594	555.776733	272.604858	-70.686462	522.311768	70.122864	-151.715134	483.948364	62.670296	-196.413544	681.334961	33.026382	-173.092697	676.075623	579.650940	-445.335602	694.309937	500.218353	-376.038330	528.541992	337.156219	-396.295410	419.443359	175.960861	-315.936951	402.949097	199.819809	-261.394073	521.071045	63.737019	-327.049896
120	1.19000000	664.082520	1411.111450	-8.566420	601.337891	1446.949341	-414.809021	573.581604	1519.864258	-196.499741	685.839661	1391.377808	-218.660126	573.489075	1085.946777	35.791412	556.681946	1107.637207	-470.553009	668.255707	832.305298	21.955140	705.033813	882.567413	-464.990082	665.739441	998.210876	-107.772240	655.483032	995.292236	-345.203766	496.163513	1058.365112	-208.751297	482.750458	1342.146729	-196.886917	711.536987	1243.051636	-240.475586	609.291748	612.210876	-49.469021	598.020691	495.838348	-110.014153	557.954102	272.633118	-70.477402	522.705750	70.560730	-151.789597	484.298401	63.284977	-196.545715	681.404541	32.880276	-173.095245	699.247925	582.758362	-444.635498	718.375427	503.276154	-375.214447	560.766052	332.066681	-396.981476	458.409119	166.160095	-317.052979	439.880432	189.540497	-262.868683	566.202454	59.646473	-325.686188
121	1.20000000	679.541687	1411.188721	-8.533938	614.948486	1446.725830	-414.463928	587.865723	1519.556274	-196.026154	700.053406	1391.057617	-218.513794	591.962219	1085.387329	37.137337	565.698364	1108.005493	-470.430298	691.492004	833.668762	20.535207	710.460052	880.504822	-467.155350	678.918030	997.515869	-106.856606	669.556274	995.534851	-344.288635	509.827667	1058.192261	-208.404831	496.951019	1341.982666	-195.881027	725.396790	1242.629272	-240.091110	617.283813	611.751404	-49.349854	603.164673	495.416626	-109.795448	560.375610	272.619873	-70.343704	523.163513	71.012474	-151.948486	484.705231	63.945023	-196.780518	681.513123	32.720375	-173.113525	722.118713	585.607544	-443.779083	741.755981	505.960358	-374.240662	593.043701	326.560089	-397.587372	498.243011	155.936203	-318.222321	477.725311	178.615875	-264.340820	612.005920	55.666485	-324.683716
122	1.21000000	694.901489	1410.923340	-8.556848	628.643982	1446.112549	-414.178772	602.149414	1518.943970	-195.642029	714.239685	1390.381714	-218.378601	610.396729	1084.527710	38.453602	574.866516	1108.032471	-470.323242	714.772369	834.879150	19.041580	715.857208	878.090851	-469.413895	692.060791	996.589172	-105.915993	683.710876	995.367188	-343.397583	523.472778	1057.693848	-208.182114	511.105133	1341.542725	-195.011078	739.229492	1241.843140	-239.675232	625.547363	611.134827	-49.284660	608.641846	494.899963	-109.638733	563.028870	272.557922	-70.308365	523.685364	71.468124	-152.218353	485.171967	64.646500	-197.146103	681.668152	32.552654	-173.150558	744.583252	588.135986	-442.774261	764.391235	508.219330	-373.142883	625.277222	320.768158	-398.080933	538.919983	145.504166	-319.418549	516.504639	167.239136	-265.770203	658.391113	52.020195	-324.121521
123	1.22000000	710.145935	1410.321655	-8.632062	642.406555	1445.118286	-413.960297	616.439819	1518.035156	-195.351578	728.404053	1389.359497	-218.261642	628.795410	1083.372681	39.725971	584.226196	1107.716553	-470.224304	738.069031	835.934204	17.487784	721.247650	875.336395	-471.747513	705.199036	995.436035	-104.957802	697.946655	994.789246	-342.539917	537.116577	1056.880737	-208.073364	525.220642	1340.832031	-194.280167	753.045410	1240.705200	-239.240936	634.054749	610.353699	-49.276310	614.432251	494.280701	-109.557091	565.886536	272.444031	-70.393463	524.268433	71.919144	-152.625183	485.702881	65.383766	-197.670319	681.875244	32.384972	-173.206909	766.522522	590.269226	-441.635925	786.224854	510.002991	-371.948151	657.376770	314.810822	-398.447235	580.402893	135.081543	-320.626465	556.219177	155.622269	-267.135132	705.260620	48.920357	-324.029541
124	1.23000000	725.261414	1409.395752	-8.755075	656.220581	1443.758301	-413.813843	630.743774	1516.839111	-195.157852	742.554199	1388.005493	-218.169647	647.159729	1081.932373	40.939426	593.811890	1107.062256	-470.126526	761.350647	836.835999	15.886649	726.646088	872.256958	-474.132248	718.364441	994.062622	-103.991005	712.265320	993.810303	-341.721771	550.777771	1055.765259	-208.066559	539.308228	1339.855835	-193.690018	766.857910	1239.233521	-238.801361	642.764099	609.405457	-49.324173	620.505798	493.554962	-109.559692	568.910645	272.280151	-70.616112	524.906433	72.360573	-153.189697	486.302368	66.151192	-198.375854	682.136353	32.226315	-173.280090	787.805969	591.920898	-440.387238	807.208923	511.264313	-370.683594	689.268311	308.794678	-398.688660	622.637756	124.886505	-321.839539	596.842773	143.991455	-268.430389	752.504700	46.567635	-324.390472
